<svg aria-hidden="true" style="position:absolute;width:0;height:0" xmlns="http://www.w3.org/2000/svg" overflow="hidden"><defs><symbol id="icon-logout" viewBox="0 0 32 32"><path fill="var(--color1, #bdbdbd)" d="M20.052 23.236h2.498v4.999a3.752 3.752 0 0 1-3.747 3.748H3.749a3.752 3.752 0 0 1-3.748-3.747V3.749A3.752 3.752 0 0 1 3.748.001h15.054a3.752 3.752 0 0 1 3.748 3.747v4.999h-2.496V3.751v-.002c0-.69-.56-1.25-1.25-1.25H3.748c-.69.001-1.249.56-1.25 1.25v24.487c0 .688.562 1.248 1.25 1.248h15.054a1.25 1.25 0 0 0 1.25-1.248v-5.001zm6.058-13.135l-1.767 1.767 2.875 2.873h-16.16v2.5h16.16l-2.875 2.873 1.767 1.767 5.89-5.89-5.89-5.89z"/></symbol>
<symbol id="icon-wallet" viewBox="0 0 32 32">
<path fill="var(--color2, #24cca7)" d="M3.755 7.619l16.213-4.538-.859-1.779C18.546.146 17.176-.331 16.048.245L1.536 7.619h2.219zm21.058-4.572c-.195 0-.39.029-.586.087L9.216 7.618h18.431l-.693-2.779c-.266-1.084-1.163-1.792-2.14-1.792z"/><path fill="var(--color3, #4a56e2)" d="M28.359 8.573H1.796c-.821 0-1.514.55-1.729 1.303l-.003.013a1.9 1.9 0 0 0-.064.467v19.863A1.79 1.79 0 0 0 1.796 32h26.56a1.79 1.79 0 0 0 1.796-1.782v-4.974H19.491c-1.685 0-3.055-1.358-3.055-3.029v-3.967c0-.819.331-1.565.866-2.11a3.027 3.027 0 0 1 2.174-.917h10.677v-4.864a1.785 1.785 0 0 0-1.786-1.781h-.007z"/>
<path fill="var(--color3, #4a56e2)" d="M31.413 16.926a1.787 1.787 0 0 0-1.208-.467H19.491c-.992 0-1.797.8-1.797 1.783v3.968a1.79 1.79 0 0 0 1.797 1.781h10.713c.205 0 .398-.035.581-.096.238-.078.449-.206.629-.37A1.77 1.77 0 0 0 32 22.21v-3.968c0-.521-.226-.992-.587-1.316zm-8.17 3.654a.896.896 0 0 1-.896.892h-.601a.896.896 0 0 1-.896-.892v-.592a.87.87 0 0 1 .346-.699.909.909 0 0 1 .552-.192h.6c.493 0 .893.398.896.89v.592z"/>
</symbol>

<symbol id="icon-diagrama" viewBox="0 0 44 44" fill="none" xmlns="http://www.w3.org/2000/svg">
	<path d="M5 3C3.89543 3 3 3.89543 3 5V19C3 20.1046 3.89543 21 5 21H19C20.1046 21 21 20.1046 21 19V5C21 3.89543 20.1046 3 19 3H5ZM17.7273 10.6667C18.4273 10.6667 19 10.0667 19 9.33333C19 8.6 18.4273 8 17.7273 8C17.0273 8 16.4545 8.6 16.4545 9.33333C16.4545 9.45333 16.4673 9.56667 16.4991 9.67333L14.24 12.0467C14.1382 12.0133 14.0236 12 13.9091 12C13.7945 12 13.68 12.0133 13.5782 12.0467L11.9555 10.3467C11.9873 10.24 12 10.12 12 10C12 9.26667 11.4273 8.66667 10.7273 8.66667C10.0273 8.66667 9.45455 9.26667 9.45455 10C9.45455 10.12 9.46727 10.24 9.49909 10.3467L6.59727 13.38C6.49545 13.3467 6.38727 13.3333 6.27273 13.3333C5.57273 13.3333 5 13.9333 5 14.6667C5 15.4 5.57273 16 6.27273 16C6.97273 16 7.54545 15.4 7.54545 14.6667C7.54545 14.5467 7.53273 14.4333 7.50091 14.3267L10.3964 11.2867C10.4982 11.32 10.6127 11.3333 10.7273 11.3333C10.8418 11.3333 10.9564 11.32 11.0582 11.2867L12.6809 12.9867C12.6491 13.0933 12.6364 13.2133 12.6364 13.3333C12.6364 14.0667 13.2091 14.6667 13.9091 14.6667C14.6091 14.6667 15.1818 14.0667 15.1818 13.3333C15.1818 13.2133 15.1691 13.0933 15.1373 12.9867L17.4027 10.62C17.5045 10.6533 17.6127 10.6667 17.7273 10.6667Z" fill="#6E78E8"/>
</symbol>

<symbol id="icon-calendar" viewBox="0 0 18 20">
<path d="M6 9H4V11H6V9ZM10 9H8V11H10V9ZM14 9H12V11H14V9ZM16 2H15V0H13V2H5V0H3V2H2C0.89 2 0.00999999 2.9 0.00999999 4L0 18C0 19.1 0.89 20 2 20H16C17.1 20 18 19.1 18 18V4C18 2.9 17.1 2 16 2ZM16 18H2V7H16V18Z" fill="#4A56E2"/>
</symbol>
</defs></svg>